HIERARCHY
ROOT Hips
{
	OFFSET 0.000000 0.000000 0.000000 
	CHANNELS 6 Xposition Yposition Zposition Yrotation Zrotation Xrotation 
	JOINT Lumbar
	{
		OFFSET 0.000000 0.000000 0.000000 
		CHANNELS 3 Zrotation Xrotation Yrotation
		JOINT Neck
		{
			OFFSET 0.000000 0.445665 0.000000 
			CHANNELS 3 Zrotation Xrotation Yrotation
			End Site
			{
				OFFSET 0.000000 0.227535 0.000000 
			}
		}
		JOINT RightShoulder
		{
			OFFSET 0.019635 0.377685 0.194865 
			CHANNELS 3 Zrotation Xrotation Yrotation
			JOINT RightElbow
			{
				OFFSET 0.000000 -0.243375 0.000000 
				CHANNELS 2 Zrotation Yrotation
				JOINT RightWrist
				{
					OFFSET 0.000000 -0.264825 0.000000 
					CHANNELS 2 Zrotation Xrotation
					End Site
					{
						OFFSET 0.006600 -0.176220 0.000990 
					}
				}
			}
		}
		JOINT LeftShoulder
		{
			OFFSET 0.019635 0.377685 -0.194865 
			CHANNELS 3 Zrotation Xrotation Yrotation
			JOINT LeftElbow
			{
				OFFSET 0.000000 -0.243375 0.000000 
				CHANNELS 2 Zrotation Yrotation
				JOINT LeftWrist
				{
					OFFSET 0.000000 -0.264825 0.000000 
					CHANNELS 2 Zrotation Xrotation
					End Site
					{
						OFFSET 0.006600 -0.176220 -0.000990 
					}
				}
			}
		}
	}
	JOINT RightHip
	{
		OFFSET 0.052140 -0.069960 0.075570 
		CHANNELS 3 Zrotation Xrotation Yrotation
		JOINT RightKnee
		{
			OFFSET 0.000000 -0.402270 0.000000 
			CHANNELS 1 Zrotation
			JOINT RightAnkle
			{
				OFFSET 0.000000 -0.404085 0.000000 
				CHANNELS 3 Zrotation Xrotation Yrotation
				End Site
				{
					OFFSET 0.204105 -0.089430 0.008415 
				}
			}
		}
	}
	JOINT LeftHip
	{
		OFFSET 0.052140 -0.069960 -0.075570 
		CHANNELS 3 Zrotation Xrotation Yrotation
		JOINT LeftKnee
		{
			OFFSET 0.000000 -0.402270 0.000000 
			CHANNELS 1 Zrotation
			JOINT LeftAnkle
			{
				OFFSET 0.000000 -0.404085 0.000000 
				CHANNELS 3 Zrotation Xrotation Yrotation
				End Site
				{
					OFFSET 0.204105 -0.089430 -0.008415 
				}
			}
		}
	}
}
MOTION
Frames: 23
Frame Time: 0.02
-0.25058 0.94386 -0.16021 214.13438 0 0.49944 3.06698 2.3156 7.3376 -20.67472 -12.01736 -7.67298 6.5609 -15.85865 24.77529 113.2629 96.271 -8.91539 -8.90212 21.7055 50.84547 -10.72486 130.04284 -150.70964 34.80012 -9.94068 6.38893 7.52765 1.48386 -22.27548 9.96149 -9.16797 -14.8249 16.91367 4.46867 -12.96016 -39.92993 8.40725 4.32323 3.76415
-0.2528 0.94258 -0.16303 214.48514 0 0.25198 3.21485 2.29892 6.40552 -20.83418 -10.66454 -6.89321 7.34719 -17.27468 23.7633 113.98229 95.57877 -5.39901 -7.85183 20.48187 48.39115 -9.23389 128.76907 -144.72509 35.25898 -8.38587 6.42601 7.93427 1.04391 -22.36127 10.04002 -9.22455 -14.80508 16.95039 4.58617 -12.76724 -39.92221 8.43182 5.02947 5.25208
-0.25498 0.94113 -0.16542 214.76672 0 -0.03856 3.36991 2.29474 5.27599 -20.95145 -9.1151 -5.89972 8.18537 -18.72215 22.19213 114.67045 93.16457 0.87355 -6.31575 18.9421 45.61087 -7.16042 126.99388 -134.58105 35.77484 -5.81014 6.45886 8.37075 0.67229 -22.45052 10.12879 -9.28704 -14.79294 16.84334 4.68101 -12.69611 -39.77604 8.53156 5.86924 7.03367
-0.25713 0.93979 -0.16798 215.0691 0 -0.30056 3.5166 2.28595 4.2674 -21.088 -7.69223 -5.02587 8.97778 -20.12032 20.9283 115.36316 91.60618 5.60205 -5.05439 17.57339 43.03804 -5.41348 125.50756 -126.88327 36.21784 -3.83525 6.49504 8.78295 0.2808 -22.53849 10.21028 -9.34528 -14.77708 16.80963 4.78 -12.57274 -39.7063 8.58637 6.62108 8.6504
-0.25951 0.93829 -0.17064 215.41486 0 -0.60373 3.68839 2.27058 3.10998 -21.22564 -6.07879 -4.03962 9.87834 -21.71095 19.44798 116.11697 89.81262 11.48796 -3.56805 16.06012 40.16354 -3.40565 123.76294 -116.99327 36.82916 -1.32208 6.52574 9.24319 -0.1592 -22.62707 10.30361 -9.41101 -14.7596 16.73752 4.90643 -12.43581 -39.5746 8.68883 7.49509 10.41635
-0.2614 0.9371 -0.17298 215.6547 0 -0.8299 3.8078 2.27198 2.22047 -21.34892 -4.82494 -3.24124 10.55975 -22.89522 18.28126 116.72825 88.07381 15.6579 -2.43078 14.78216 37.85479 -1.79898 122.43503 -110.57515 37.11693 0.33885 6.56622 9.60892 -0.48143 -22.71356 10.37424 -9.46191 -14.74836 16.71322 4.97034 -12.35557 -39.54031 8.7102 8.14376 11.92862
-0.26203 0.93678 -0.17454 215.61568 0 -0.8358 3.78629 2.32588 2.14088 -21.46115 -4.65627 -3.04161 10.63154 -22.89693 18.13471 116.95369 86.87803 14.26597 -2.41507 14.25466 37.25032 -1.49213 122.41296 -115.3546 36.47247 -0.74573 6.6405 9.7124 -0.49434 -22.80511 10.38215 -9.47339 -14.75281 16.85282 4.85977 -12.41186 -39.8154 8.47623 8.13518 12.74605
-0.26217 0.93678 -0.17578 215.4733 0 -0.76202 3.71046 2.39533 2.33642 -21.55713 -4.85372 -3.03662 10.47778 -22.49099 18.31913 117.03388 85.79133 11.08868 -2.76068 13.97525 37.22405 -1.60151 122.82276 -123.65508 35.50921 -2.69492 6.72378 9.7186 -0.39053 -22.89239 10.36655 -9.4686 -14.76418 17.04623 4.68803 -12.52045 -40.19183 8.16071 7.89451 13.28288
-0.26251 0.93666 -0.17715 215.38053 0 -0.72202 3.65537 2.45141 2.39432 -21.64842 -4.8595 -2.92656 10.4196 -22.29976 18.33939 117.17758 84.66305 8.83458 -2.91501 13.57104 36.8989 -1.48715 123.01314 -129.92953 34.71192 -4.14842 6.79911 9.76469 -0.3412 -22.97358 10.35971 -9.46991 -14.77178 17.21842 4.54898 -12.59748 -40.51972 7.8897 7.76069 13.89514
-0.26294 0.93646 -0.17859 215.27401 0 -0.69273 3.61689 2.53267 2.49793 -21.78865 -4.96302 -2.87665 10.3916 -21.98793 18.39731 117.33101 83.44239 6.2019 -3.16505 13.20497 36.70918 -1.49417 123.2807 -137.82369 33.82627 -5.99204 6.89031 9.82884 -0.28562 -23.08786 10.3604 -9.47905 -14.7798 17.37393 4.38902 -12.70716 -40.85748 7.58704 7.62626 14.735
-0.26308 0.93648 -0.17979 215.17271 0 -0.62307 3.53127 2.56729 2.57462 -21.82434 -4.95448 -2.75325 10.24784 -21.82769 18.46386 117.43016 82.46216 3.90005 -3.30994 12.82404 36.38494 -1.3601 123.50037 -143.2781 33.04931 -7.25241 6.95098 9.83346 -0.21351 -23.13335 10.34088 -9.46526 -14.79154 17.57626 4.25779 -12.76527 -41.19519 7.33356 7.43572 15.03373
-0.26255 0.93705 -0.1805 215.10901 0 -0.44813 3.32495 2.44915 2.50846 -21.57002 -4.5328 -2.35758 9.82763 -22.20326 18.46542 117.41286 82.12573 2.9205 -3.06021 12.33286 35.5016 -0.69267 123.45177 -140.76969 32.64282 -6.60122 6.9222 9.68278 -0.1492 -22.97955 10.26078 -9.41678 -14.78393 17.91676 4.22541 -12.61878 -41.55366 7.20316 7.15103 13.87729
-0.26176 0.93783 -0.18098 215.05458 0 -0.2372 3.07402 2.28671 2.40676 -21.21262 -3.98912 -1.8861 9.30127 -22.74235 18.4685 117.34634 82.03542 2.327 -2.69732 11.82195 34.47296 0.12012 123.34766 -135.7711 32.35799 -5.35463 6.86285 9.47751 -0.06893 -22.75859 10.16282 -9.34254 -14.78371 18.29858 4.22296 -12.42661 -41.90001 7.12983 6.81713 12.19151
-0.26109 0.93848 -0.18152 214.99796 0 -0.05171 2.8456 2.1584 2.32342 -20.90564 -3.51213 -1.46518 8.83031 -23.19421 18.47881 117.304 81.83565 1.56147 -2.39947 11.32675 33.54344 0.83623 123.29223 -132.17476 32.02221 -4.4448 6.81957 9.30757 0.02125 -22.57517 10.08018 -9.26209 -14.80001 18.64844 4.2044 -12.2879 -42.2236 7.05261 6.50154 10.76403
-0.26041 0.93926 -0.18223 214.93028 0 0.17334 2.60468 1.97372 2.24108 -20.58149 -3.00175 -0.9843 8.31876 -23.68448 18.4668 117.24942 81.62556 0.72118 -2.05762 10.8095 32.49578 1.66844 123.15509 -127.56455 31.65682 -3.28649 6.76782 9.09246 0.04705 -22.36196 9.96732 -9.25097 -14.73789 19.05796 4.19577 -12.01549 -42.67303 6.8834 6.19217 9.24577
-0.25969 0.93982 -0.18252 214.88777 0 0.32544 2.3814 1.89298 2.14361 -20.27072 -2.52538 -0.60606 7.87265 -24.14132 18.49746 117.20993 81.49789 0.15096 -1.77442 10.33284 31.65016 2.29746 123.16619 -124.41906 31.3864 -2.49143 6.72583 8.95642 0.20422 -22.19491 9.91219 -9.09673 -14.83415 19.34954 4.17248 -12.00692 -42.85232 6.91552 5.86478 7.8024
-0.25889 0.93969 -0.18177 214.92493 0 0.25031 2.20513 2.13352 2.02162 -20.00606 -2.18714 -0.54401 7.60693 -24.44677 18.6444 117.23036 81.51254 0.24123 -1.6925 9.9506 31.41307 2.34187 123.62659 -126.00117 31.34557 -2.85705 6.72254 9.08116 0.76381 -22.17211 10.0322 -8.49063 -15.42392 19.32972 4.11846 -12.7631 -42.32259 7.53209 5.46918 6.62726
-0.25806 0.93934 -0.18058 214.98506 0 0.10323 2.05083 2.47564 1.88307 -19.76141 -1.8831 -0.58426 7.41668 -24.71845 18.83281 117.26745 81.60891 0.59849 -1.6695 9.61286 31.37839 2.17693 124.23105 -129.10911 31.39672 -3.60178 6.72932 9.28262 1.44736 -22.19815 10.20909 -7.7523 -16.16277 19.18525 4.04611 -13.78054 -41.51566 8.34186 5.06365 5.55905
-0.25727 0.93912 -0.17954 215.02735 0 -0.0001 1.89499 2.75595 1.74465 -19.51832 -1.55178 -0.56736 7.21036 -25.02027 19.00144 117.29332 81.68014 0.83426 -1.61028 9.26826 31.23858 2.10148 124.75019 -131.45676 31.4112 -4.16151 6.72861 9.43012 2.04369 -22.2015 10.3524 -7.11704 -16.79424 19.08127 3.97087 -14.66278 -40.81148 9.03563 4.68428 4.48893
-0.25637 0.93878 -0.1787 215.10211 0 -0.14854 1.70177 3.10117 1.63479 -19.22701 -1.26485 -0.59288 6.9236 -25.26545 19.17439 117.33197 81.6972 1.0767 -1.58759 8.8667 31.15052 2.05312 125.35154 -134.01486 31.41435 -4.75681 6.73904 9.65543 2.76684 -22.20415 10.52705 -6.3032 -17.58989 19.04586 3.94266 -15.61658 -40.20051 9.85007 4.2131 3.20634
-0.25569 0.93864 -0.17735 215.11335 0 -0.22087 1.5924 3.33538 1.46393 -19.04177 -0.89658 -0.55536 6.82329 -25.61804 19.34795 117.34964 81.85853 1.37179 -1.50373 8.59459 31.00333 1.89873 125.81643 -136.51289 31.45348 -5.37302 6.72921 9.73865 3.26033 -22.22127 10.65099 -5.82552 -18.08314 18.83888 3.81344 -16.47948 -39.33532 10.45873 3.92963 2.39452
-0.25564 0.93911 -0.17476 214.9545 0 -0.0636 1.70818 3.24267 1.11115 -19.15027 -0.28277 -0.31835 7.22555 -26.27941 19.51574 117.29618 82.26761 1.67923 -1.24066 8.67068 30.6537 1.48099 125.86811 -138.59707 31.62804 -5.97687 6.66003 9.40214 3.0434 -22.26269 10.61392 -6.34984 -17.66786 18.17635 3.39513 -17.06606 -37.78764 10.4483 4.18358 2.89526
-0.25582 0.93978 -0.17166 214.72901 0 0.17211 1.90813 3.03418 0.70087 -19.36495 0.41113 -0.01472 7.81338 -27.0486 19.6833 117.22252 82.84278 2.04094 -0.91361 8.87655 30.23617 0.96383 125.77676 -140.54335 31.81779 -6.58598 6.57059 8.92189 2.59931 -22.31829 10.52526 -7.20966 -16.94986 17.34761 2.87831 -17.54533 -36.00279 10.22472 4.624 3.86164
